<svg width="317" height="125" viewBox="0 0 317 125" fill="none" xmlns="http://www.w3.org/2000/svg">
<path d="M41.7766 43.3829V88.3191H31.5957L15.359 64.71H15.0957V88.3191H2.89628V43.3829H13.2527L29.2261 66.9042H29.5771V43.3829H41.7766ZM72.2867 43.3829H84.4861V72.1702C84.4861 75.593 83.667 78.5551 82.0287 81.0565C80.405 83.5432 78.1377 85.4667 75.2268 86.8271C72.3159 88.1728 68.9369 88.8457 65.0899 88.8457C61.2135 88.8457 57.8199 88.1728 54.909 86.8271C51.9981 85.4667 49.7308 83.5432 48.1072 81.0565C46.4981 78.5551 45.6936 75.593 45.6936 72.1702V43.3829H57.8931V71.117C57.8931 72.5066 58.2002 73.7499 58.8146 74.847C59.429 75.9295 60.2774 76.7779 61.3598 77.3922C62.4569 78.0066 63.7002 78.3138 65.0899 78.3138C66.4941 78.3138 67.7375 78.0066 68.8199 77.3922C69.9024 76.7779 70.7508 75.9295 71.3651 74.847C71.9795 73.7499 72.2867 72.5066 72.2867 71.117V43.3829Z" fill="#1F4E79"/>
<rect x="96" y="39" width="7" height="54" fill="black"/>
<path d="M177.502 43.7861L164.573 88H152.522L144.461 57.1141L136.4 88H124.27L111.261 43.7861H122.594L130.415 77.4653L138.875 43.7861H150.686L158.986 77.3855L166.808 43.7861H177.502ZM176.285 65.7334C176.285 61.2641 177.163 57.3003 178.918 53.842C180.727 50.3836 183.148 47.7233 186.181 45.8611C189.267 43.9989 192.699 43.0678 196.476 43.0678C199.775 43.0678 202.648 43.7329 205.096 45.063C207.596 46.3932 209.592 48.0691 211.081 50.091V43.7861H222.334V88H211.081V81.5355C209.645 83.6105 207.65 85.3397 205.096 86.7231C202.595 88.0532 199.695 88.7183 196.397 88.7183C192.672 88.7183 189.267 87.7606 186.181 85.8452C183.148 83.9298 180.727 81.2429 178.918 77.7845C177.163 74.2729 176.285 70.2559 176.285 65.7334ZM211.081 65.893C211.081 63.1796 210.549 60.8651 209.485 58.9497C208.421 56.9811 206.984 55.4913 205.175 54.4804C203.366 53.4163 201.424 52.8843 199.349 52.8843C197.274 52.8843 195.359 53.3897 193.603 54.4006C191.847 55.4115 190.411 56.9013 189.294 58.8699C188.229 60.7853 187.697 63.0731 187.697 65.7334C187.697 68.3937 188.229 70.7348 189.294 72.7566C190.411 74.7252 191.847 76.2415 193.603 77.3057C195.412 78.3698 197.328 78.9018 199.349 78.9018C201.424 78.9018 203.366 78.3964 205.175 77.3855C206.984 76.3214 208.421 74.8316 209.485 72.9162C210.549 70.9476 211.081 68.6065 211.081 65.893ZM247.293 77.7047L258.466 43.7861H270.358L253.997 88H240.43L224.149 43.7861H236.12L247.293 77.7047ZM313.345 64.9353C313.345 66.5315 313.239 67.9681 313.026 69.245H280.704C280.97 72.4373 282.087 74.938 284.056 76.747C286.024 78.556 288.445 79.4605 291.318 79.4605C295.468 79.4605 298.421 77.6781 300.177 74.1133H312.228C310.951 78.3698 308.504 81.8813 304.886 84.648C301.268 87.3615 296.825 88.7183 291.558 88.7183C287.301 88.7183 283.47 87.7872 280.065 85.925C276.713 84.0096 274.08 81.3227 272.164 77.8643C270.302 74.406 269.371 70.4155 269.371 65.893C269.371 61.3174 270.302 57.3003 272.164 53.842C274.026 50.3836 276.633 47.7233 279.985 45.8611C283.337 43.9989 287.195 43.0678 291.558 43.0678C295.761 43.0678 299.512 43.9723 302.811 45.7813C306.163 47.5903 308.743 50.1708 310.552 53.5227C312.414 56.8215 313.345 60.6257 313.345 64.9353ZM301.773 61.743C301.72 58.8699 300.682 56.582 298.661 54.8795C296.639 53.1237 294.165 52.2458 291.238 52.2458C288.472 52.2458 286.131 53.0971 284.215 54.7997C282.353 56.449 281.209 58.7635 280.783 61.743H301.773Z" fill="#FFC000"/>
<path d="M2.88601 110.539C2.88601 109.272 3.16289 108.14 3.71665 107.143C4.27041 106.134 5.02722 105.353 5.98706 104.799C6.94691 104.233 8.01751 103.95 9.19887 103.95C10.6386 103.95 11.8692 104.294 12.8906 104.983C13.9243 105.66 14.6749 106.62 15.1425 107.863H13.6289C13.2598 106.989 12.6937 106.306 11.9307 105.814C11.1801 105.322 10.2695 105.076 9.19887 105.076C8.25132 105.076 7.39607 105.297 6.63312 105.74C5.88247 106.183 5.29179 106.823 4.86109 107.66C4.43039 108.484 4.21504 109.444 4.21504 110.539C4.21504 111.635 4.43039 112.595 4.86109 113.419C5.29179 114.244 5.88247 114.877 6.63312 115.32C7.39607 115.763 8.25132 115.985 9.19887 115.985C10.2695 115.985 11.1801 115.745 11.9307 115.265C12.6937 114.773 13.2598 114.096 13.6289 113.234H15.1425C14.6749 114.465 13.9243 115.419 12.8906 116.096C11.8569 116.772 10.6263 117.111 9.19887 117.111C8.01751 117.111 6.94691 116.834 5.98706 116.28C5.02722 115.714 4.27041 114.933 3.71665 113.936C3.16289 112.939 2.88601 111.807 2.88601 110.539ZM26.2451 117L23.0518 111.61H20.6706V117H19.3785V104.097H23.2548C24.6946 104.097 25.7837 104.442 26.522 105.131C27.2727 105.82 27.648 106.725 27.648 107.845C27.648 108.78 27.3773 109.58 26.8358 110.244C26.3067 110.896 25.5191 111.321 24.4731 111.518L27.7956 117H26.2451ZM20.6706 110.558H23.2733C24.2824 110.558 25.0392 110.312 25.5437 109.82C26.0605 109.327 26.319 108.669 26.319 107.845C26.319 106.995 26.0728 106.343 25.5806 105.888C25.0884 105.42 24.3131 105.186 23.2548 105.186H20.6706V110.558ZM33.1655 105.15V109.967H38.0571V111.038H33.1655V115.929H38.6108V117H31.8734V104.079H38.6108V105.15H33.1655ZM50.2938 113.936H44.424L43.298 117H41.9321L46.639 104.264H48.0973L52.7858 117H51.4198L50.2938 113.936ZM49.9062 112.865L47.3589 105.888L44.8116 112.865H49.9062ZM64.0703 104.097V105.168H60.4893V117H59.1972V105.168H55.5978V104.097H64.0703ZM69.064 104.097V117H67.7719V104.097H69.064ZM83.8773 104.097L78.9858 117H77.5091L72.6175 104.097H74.0204L78.2474 115.597L82.5114 104.097H83.8773ZM88.7722 105.15V109.967H93.6637V111.038H88.7722V115.929H94.2174V117H87.48V104.079H94.2174V105.15H88.7722ZM121.163 110.724H117.046V114.877H115.846V110.724H111.749V109.617H115.846V105.463H117.046V109.617H121.163V110.724ZM139.911 104.097V105.168H136.33V117H135.038V105.168H131.438V104.097H139.911ZM144.904 105.15V109.967H149.796V111.038H144.904V115.929H150.35V117H143.612V104.079H150.35V105.15H144.904ZM153.966 110.539C153.966 109.272 154.243 108.14 154.797 107.143C155.351 106.134 156.108 105.353 157.067 104.799C158.027 104.233 159.098 103.95 160.279 103.95C161.719 103.95 162.95 104.294 163.971 104.983C165.005 105.66 165.755 106.62 166.223 107.863H164.709C164.34 106.989 163.774 106.306 163.011 105.814C162.26 105.322 161.35 105.076 160.279 105.076C159.332 105.076 158.476 105.297 157.713 105.74C156.963 106.183 156.372 106.823 155.941 107.66C155.511 108.484 155.295 109.444 155.295 110.539C155.295 111.635 155.511 112.595 155.941 113.419C156.372 114.244 156.963 114.877 157.713 115.32C158.476 115.763 159.332 115.985 160.279 115.985C161.35 115.985 162.26 115.745 163.011 115.265C163.774 114.773 164.34 114.096 164.709 113.234H166.223C165.755 114.465 165.005 115.419 163.971 116.096C162.937 116.772 161.707 117.111 160.279 117.111C159.098 117.111 158.027 116.834 157.067 116.28C156.108 115.714 155.351 114.933 154.797 113.936C154.243 112.939 153.966 111.807 153.966 110.539ZM180.039 104.097V117H178.747V110.964H171.751V117H170.459V104.097H171.751V109.893H178.747V104.097H180.039ZM194.376 117H193.084L185.94 106.146V117H184.648V104.097H185.94L193.084 114.933V104.097H194.376V117ZM204.76 117.129C203.566 117.129 202.483 116.852 201.511 116.299C200.539 115.733 199.77 114.951 199.204 113.954C198.65 112.945 198.373 111.807 198.373 110.539C198.373 109.272 198.65 108.14 199.204 107.143C199.77 106.134 200.539 105.353 201.511 104.799C202.483 104.233 203.566 103.95 204.76 103.95C205.966 103.95 207.055 104.233 208.027 104.799C208.999 105.353 209.762 106.134 210.316 107.143C210.87 108.14 211.146 109.272 211.146 110.539C211.146 111.807 210.87 112.945 210.316 113.954C209.762 114.951 208.999 115.733 208.027 116.299C207.055 116.852 205.966 117.129 204.76 117.129ZM204.76 116.003C205.72 116.003 206.581 115.782 207.344 115.339C208.107 114.896 208.71 114.262 209.153 113.437C209.596 112.601 209.817 111.635 209.817 110.539C209.817 109.444 209.596 108.484 209.153 107.66C208.71 106.835 208.107 106.202 207.344 105.759C206.581 105.316 205.72 105.094 204.76 105.094C203.8 105.094 202.938 105.316 202.175 105.759C201.413 106.202 200.81 106.835 200.367 107.66C199.924 108.484 199.702 109.444 199.702 110.539C199.702 111.635 199.924 112.601 200.367 113.437C200.81 114.262 201.413 114.896 202.175 115.339C202.938 115.782 203.8 116.003 204.76 116.003ZM216.464 115.948H221.097V117H215.172V104.097H216.464V115.948ZM230.398 117.129C229.205 117.129 228.122 116.852 227.15 116.299C226.178 115.733 225.408 114.951 224.842 113.954C224.289 112.945 224.012 111.807 224.012 110.539C224.012 109.272 224.289 108.14 224.842 107.143C225.408 106.134 226.178 105.353 227.15 104.799C228.122 104.233 229.205 103.95 230.398 103.95C231.604 103.95 232.693 104.233 233.666 104.799C234.638 105.353 235.401 106.134 235.954 107.143C236.508 108.14 236.785 109.272 236.785 110.539C236.785 111.807 236.508 112.945 235.954 113.954C235.401 114.951 234.638 115.733 233.666 116.299C232.693 116.852 231.604 117.129 230.398 117.129ZM230.398 116.003C231.358 116.003 232.22 115.782 232.983 115.339C233.746 114.896 234.349 114.262 234.792 113.437C235.235 112.601 235.456 111.635 235.456 110.539C235.456 109.444 235.235 108.484 234.792 107.66C234.349 106.835 233.746 106.202 232.983 105.759C232.22 105.316 231.358 105.094 230.398 105.094C229.439 105.094 228.577 105.316 227.814 105.759C227.051 106.202 226.448 106.835 226.005 107.66C225.562 108.484 225.341 109.444 225.341 110.539C225.341 111.635 225.562 112.601 226.005 113.437C226.448 114.262 227.051 114.896 227.814 115.339C228.577 115.782 229.439 116.003 230.398 116.003ZM250.963 107.863C250.594 107.014 250.028 106.349 249.265 105.869C248.514 105.377 247.628 105.131 246.607 105.131C245.647 105.131 244.785 105.353 244.023 105.796C243.26 106.239 242.657 106.872 242.214 107.697C241.771 108.509 241.549 109.457 241.549 110.539C241.549 111.622 241.771 112.576 242.214 113.401C242.657 114.225 243.26 114.859 244.023 115.302C244.785 115.745 245.647 115.966 246.607 115.966C247.505 115.966 248.311 115.776 249.025 115.394C249.751 115 250.329 114.447 250.76 113.733C251.203 113.007 251.455 112.164 251.517 111.204H246.09V110.152H252.883V111.093C252.821 112.225 252.513 113.253 251.96 114.176C251.406 115.086 250.661 115.806 249.726 116.335C248.803 116.865 247.763 117.129 246.607 117.129C245.413 117.129 244.33 116.852 243.358 116.299C242.386 115.733 241.617 114.951 241.051 113.954C240.497 112.945 240.22 111.807 240.22 110.539C240.22 109.272 240.497 108.14 241.051 107.143C241.617 106.134 242.386 105.353 243.358 104.799C244.33 104.233 245.413 103.95 246.607 103.95C247.985 103.95 249.191 104.294 250.225 104.983C251.258 105.673 252.009 106.632 252.477 107.863H250.963ZM265.439 104.097L261.304 111.979V117H260.012V111.979L255.84 104.097H257.298L260.658 110.798L263.999 104.097H265.439ZM285.298 104.097V117H284.006V110.964H277.01V117H275.718V104.097H277.01V109.893H284.006V104.097H285.298ZM291.144 104.097V112.219C291.144 113.499 291.445 114.447 292.048 115.062C292.664 115.677 293.5 115.985 294.559 115.985C295.617 115.985 296.441 115.683 297.032 115.08C297.635 114.465 297.937 113.511 297.937 112.219V104.097H299.229V112.201C299.229 113.837 298.792 115.068 297.918 115.892C297.057 116.717 295.931 117.129 294.54 117.129C293.15 117.129 292.017 116.717 291.144 115.892C290.282 115.068 289.852 113.837 289.852 112.201V104.097H291.144ZM309.808 110.336C310.534 110.472 311.149 110.841 311.654 111.444C312.158 112.047 312.411 112.748 312.411 113.548C312.411 114.2 312.244 114.791 311.912 115.32C311.592 115.837 311.118 116.249 310.491 116.557C309.863 116.852 309.113 117 308.239 117H303.772V104.097H308.11C309.414 104.097 310.405 104.399 311.082 105.002C311.771 105.605 312.115 106.386 312.115 107.346C312.115 108.146 311.9 108.798 311.469 109.303C311.038 109.795 310.485 110.14 309.808 110.336ZM305.064 109.801H308.073C308.947 109.801 309.617 109.598 310.085 109.192C310.565 108.774 310.805 108.201 310.805 107.475C310.805 106.762 310.565 106.202 310.085 105.796C309.617 105.39 308.928 105.186 308.017 105.186H305.064V109.801ZM308.147 115.911C309.082 115.911 309.808 115.689 310.325 115.246C310.854 114.803 311.118 114.194 311.118 113.419C311.118 112.644 310.842 112.028 310.288 111.573C309.746 111.106 309.014 110.872 308.091 110.872H305.064V115.911H308.147Z" fill="black"/>
</svg>
